<svg id="Layer_1" data-name="Layer 1" xmlns="http://www.w3.org/2000/svg" xmlns:xlink="http://www.w3.org/1999/xlink" viewBox="0 0 120 120"><defs><style>.cls-1,.cls-5,.cls-9{fill:none;}.cls-2,.cls-6{fill:#f3f3f3;}.cls-2,.cls-9{stroke:#d5d7d7;stroke-width:0.5px;}.cls-2,.cls-5,.cls-9{stroke-miterlimit:10;}.cls-3{fill:#122e51;}.cls-4{clip-path:url(#clip-path);}.cls-5{stroke:#efefef;stroke-width:0.25px;}.cls-7{clip-path:url(#clip-path-2);}.cls-8{fill:#d5d7d7;}.cls-10{fill:#aeafb4;}.cls-11{fill:#0872b9;}.cls-12{fill:#231f20;}.cls-13{clip-path:url(#clip-path-3);}.cls-14{fill:#e31d3f;}.cls-15{fill:#fff;}.cls-16{clip-path:url(#clip-path-4);}.cls-17{fill:#46a363;}.cls-18{clip-path:url(#clip-path-5);}.cls-19{fill:#00a5d1;}</style><clipPath id="clip-path" transform="translate(-5.09 -3.34)"><circle class="cls-1" cx="65.09" cy="63.34" r="60.06"/></clipPath><clipPath id="clip-path-2" transform="translate(-5.09 -3.34)"><path class="cls-2" d="M63.15,54.85a2,2,0,0,1-2,2h-43a2,2,0,0,1-2-2V15.94a2,2,0,0,1,2-2h43a2,2,0,0,1,2,2V54.85Z"/></clipPath><clipPath id="clip-path-3" transform="translate(-5.09 -3.34)"><rect class="cls-2" x="67" y="22.94" width="47.03" height="42.96" rx="2.02" ry="2.02"/></clipPath><clipPath id="clip-path-4" transform="translate(-5.09 -3.34)"><rect class="cls-2" x="67" y="69.97" width="47.03" height="42.96" rx="2.02" ry="2.02"/></clipPath><clipPath id="clip-path-5" transform="translate(-5.09 -3.34)"><path class="cls-2" d="M63.15,101.76a2,2,0,0,1-2,2h-43a2,2,0,0,1-2-2V62.84a2,2,0,0,1,2-2h43a2,2,0,0,1,2,2v38.91Z"/></clipPath></defs><title>Flexibility</title><circle class="cls-3" cx="60" cy="60" r="60"/><circle class="cls-1" cx="60" cy="60" r="60"/><g class="cls-4"><rect class="cls-5" x="11.02" y="10.57" width="47.03" height="42.95" rx="2.02" ry="2.02"/><path class="cls-6" d="M63.15,54.85a2,2,0,0,1-2,2h-43a2,2,0,0,1-2-2V15.94a2,2,0,0,1,2-2h43a2,2,0,0,1,2,2V54.85Z" transform="translate(-5.09 -3.34)"/><g class="cls-7"><rect class="cls-8" x="9.64" y="10.32" width="49.97" height="3.32"/></g><path class="cls-9" d="M63.15,54.85a2,2,0,0,1-2,2h-43a2,2,0,0,1-2-2V15.94a2,2,0,0,1,2-2h43a2,2,0,0,1,2,2V54.85Z" transform="translate(-5.09 -3.34)"/><polygon class="cls-10" points="13.77 11.38 14.05 11.95 14.67 12.04 14.22 12.48 14.33 13.1 13.77 12.81 13.21 13.1 13.32 12.48 12.87 12.04 13.49 11.95 13.77 11.38"/><polygon class="cls-10" points="16.27 11.38 16.55 11.95 17.18 12.04 16.73 12.48 16.83 13.1 16.27 12.81 15.71 13.1 15.82 12.48 15.37 12.04 15.99 11.95 16.27 11.38"/><polygon class="cls-10" points="18.78 11.38 19.06 11.95 19.68 12.04 19.23 12.48 19.34 13.1 18.78 12.81 18.22 13.1 18.33 12.48 17.87 12.04 18.5 11.95 18.78 11.38"/><rect class="cls-11" x="11.02" y="13.64" width="46.81" height="5.72"/><path class="cls-12" d="M35.93,43.1H32l-0.79,3.07h-3l4-12.93h3.51l4,12.93H36.72Zm-0.59-2.28L35,39.63q-0.28-1-.53-2.06T34,35.46H33.9l-0.49,2.11c-0.17.72-.34,1.41-0.53,2.05l-0.32,1.19h2.76Z" transform="translate(-5.09 -3.34)"/><path class="cls-12" d="M40.62,43.43A2.76,2.76,0,0,1,41.93,41a9.68,9.68,0,0,1,4.22-1.17,1.63,1.63,0,0,0-.4-1,1.5,1.5,0,0,0-1.15-.39,3.59,3.59,0,0,0-1.27.24,8.79,8.79,0,0,0-1.35.65l-1-1.92a10.31,10.31,0,0,1,2-.93,6.77,6.77,0,0,1,2.21-.36,3.77,3.77,0,0,1,2.9,1.08,4.82,4.82,0,0,1,1,3.36v5.63H46.69l-0.22-1H46.41a6.21,6.21,0,0,1-1.34.9,3.43,3.43,0,0,1-1.54.35,3.06,3.06,0,0,1-1.21-.23,2.64,2.64,0,0,1-.91-0.63,2.94,2.94,0,0,1-.58-0.94A3.2,3.2,0,0,1,40.62,43.43Zm2.78-.22a0.82,0.82,0,0,0,.31.7,1.34,1.34,0,0,0,.82.23,1.63,1.63,0,0,0,.87-0.22,4.15,4.15,0,0,0,.75-0.61V41.59a5.33,5.33,0,0,0-2.16.63A1.2,1.2,0,0,0,43.4,43.21Z" transform="translate(-5.09 -3.34)"/><rect class="cls-6" x="61.91" y="19.6" width="47.03" height="42.96" rx="2.02" ry="2.02"/><g class="cls-13"><rect class="cls-8" x="60.53" y="19.34" width="49.97" height="3.32"/></g><rect class="cls-9" x="61.91" y="19.6" width="47.03" height="42.96" rx="2.02" ry="2.02"/><polygon class="cls-10" points="64.66 20.23 64.94 20.8 65.56 20.89 65.11 21.33 65.22 21.95 64.66 21.66 64.1 21.95 64.21 21.33 63.76 20.89 64.38 20.8 64.66 20.23"/><polygon class="cls-10" points="67.16 20.23 67.44 20.8 68.07 20.89 67.62 21.33 67.72 21.95 67.16 21.66 66.61 21.95 66.71 21.33 66.26 20.89 66.88 20.8 67.16 20.23"/><polygon class="cls-10" points="69.67 20.23 69.95 20.8 70.57 20.89 70.12 21.33 70.23 21.95 69.67 21.66 69.11 21.95 69.22 21.33 68.76 20.89 69.39 20.8 69.67 20.23"/><rect class="cls-14" x="62.12" y="22.68" width="46.86" height="5.72"/><path class="cls-12" d="M77.35,55.23l1.33-.35,4.89-13.56H86.1l4.71,13.56,1.5,0.36v1.11h-6V55.24l1.42-.38-0.67-2.18H81.59L80.9,54.84l1.52,0.39v1.12H77.35V55.23Zm9.28-4.06-1.41-4.56-0.8-2.77-2.34,7.33h4.56Z" transform="translate(-5.09 -3.34)"/><path class="cls-12" d="M93.34,52.84a2.32,2.32,0,0,1,.48-1.08,3.8,3.8,0,0,1,.92-0.82,6,6,0,0,1,1.2-.59A10.15,10.15,0,0,1,97.26,50a12,12,0,0,1,1.28-.2,10.8,10.8,0,0,1,1.08-.06V49.34a4,4,0,0,0-.17-1.25A1.76,1.76,0,0,0,99,47.34,1.61,1.61,0,0,0,98.26,47a4.31,4.31,0,0,0-.95-0.1,5.26,5.26,0,0,0-.94.08,8.25,8.25,0,0,0-.85.2,6,6,0,0,0-.72.26l-0.53.26-0.52-1.23A3.23,3.23,0,0,1,94.44,46a7.23,7.23,0,0,1,1-.38,10.61,10.61,0,0,1,1.29-.28,9.57,9.57,0,0,1,1.44-.11,7.59,7.59,0,0,1,1.65.17,3.33,3.33,0,0,1,1.32.6,2.89,2.89,0,0,1,.88,1.16,4.65,4.65,0,0,1,.32,1.86v6.2h1.25v0.86a2.44,2.44,0,0,1-.48.23,4,4,0,0,1-.57.15,5.45,5.45,0,0,1-.59.08l-0.57,0-0.44,0a1.63,1.63,0,0,1-.49-0.15,1.08,1.08,0,0,1-.4-0.33,1,1,0,0,1-.16-0.59V55.43a4.3,4.3,0,0,1-1.22.84,4.11,4.11,0,0,1-1.76.34,4.65,4.65,0,0,1-1.79-.31A3.1,3.1,0,0,1,94,55.46a2.71,2.71,0,0,1-.6-1.2A3.58,3.58,0,0,1,93.34,52.84ZM96,53.18a1.75,1.75,0,0,0,.56,1.47,2.3,2.3,0,0,0,1.62.36A1.93,1.93,0,0,0,99,54.78a4.48,4.48,0,0,0,.62-0.41q0-.85,0-1.69t0-1.69c-0.23,0-.48,0-0.75,0a5.67,5.67,0,0,0-.8.14,4.27,4.27,0,0,0-.76.26,2.65,2.65,0,0,0-.64.41,1.88,1.88,0,0,0-.45.58A1.71,1.71,0,0,0,96,53.18Z" transform="translate(-5.09 -3.34)"/><rect class="cls-15" x="61.91" y="66.63" width="47.03" height="42.96" rx="2.02" ry="2.02"/><rect class="cls-6" x="61.91" y="66.63" width="47.03" height="42.96" rx="2.02" ry="2.02"/><g class="cls-16"><rect class="cls-8" x="60.53" y="66.37" width="49.97" height="3.32"/></g><rect class="cls-9" x="61.91" y="66.63" width="47.03" height="42.96" rx="2.02" ry="2.02"/><polygon class="cls-10" points="64.66 67.26 64.94 67.82 65.56 67.91 65.11 68.36 65.22 68.98 64.66 68.68 64.1 68.98 64.21 68.36 63.76 67.91 64.38 67.82 64.66 67.26"/><polygon class="cls-10" points="67.16 67.26 67.44 67.82 68.07 67.91 67.62 68.36 67.72 68.98 67.16 68.68 66.61 68.98 66.71 68.36 66.26 67.91 66.88 67.82 67.16 67.26"/><polygon class="cls-10" points="69.67 67.26 69.95 67.82 70.57 67.91 70.12 68.36 70.23 68.98 69.67 68.68 69.11 68.98 69.22 68.36 68.76 67.91 69.39 67.82 69.67 67.26"/><rect class="cls-17" x="62.13" y="69.68" width="46.71" height="5.72"/><path class="cls-12" d="M88.48,98.12H83.74l-1.25,4H80.8l4.4-13h1.86l4.4,13H89.71Zm-0.42-1.33-0.62-2q-0.36-1.09-.67-2.17t-0.63-2.21H86.06q-0.3,1.13-.61,2.21t-0.68,2.17l-0.61,2h3.91Z" transform="translate(-5.09 -3.34)"/><path class="cls-12" d="M92.68,99.59a2.67,2.67,0,0,1,1.42-2.43A11.69,11.69,0,0,1,98.61,96a4.48,4.48,0,0,0-.09-0.89,2.14,2.14,0,0,0-.32-0.77,1.71,1.71,0,0,0-.6-0.55,2,2,0,0,0-1-.21,3.89,3.89,0,0,0-1.58.32,7.8,7.8,0,0,0-1.3.71L93.1,93.46a10.64,10.64,0,0,1,1.65-.84,5.5,5.5,0,0,1,2.14-.41,3,3,0,0,1,2.56,1.08,4.76,4.76,0,0,1,.79,2.89v5.91H98.89l-0.14-1.15h0a8,8,0,0,1-1.5,1,3.71,3.71,0,0,1-1.7.41,3,3,0,0,1-2-.71A2.57,2.57,0,0,1,92.68,99.59Zm1.61-.12a1.38,1.38,0,0,0,.49,1.19A2,2,0,0,0,96,101a2.81,2.81,0,0,0,1.32-.33,6.39,6.39,0,0,0,1.32-1V97a17.05,17.05,0,0,0-2,.38,5.36,5.36,0,0,0-1.34.52,1.92,1.92,0,0,0-.72.68A1.7,1.7,0,0,0,94.29,99.47Z" transform="translate(-5.09 -3.34)"/><rect class="cls-1" x="11.02" y="57.48" width="47.03" height="42.96" rx="2.02" ry="2.02"/><path class="cls-6" d="M63.15,101.76a2,2,0,0,1-2,2h-43a2,2,0,0,1-2-2V62.84a2,2,0,0,1,2-2h43a2,2,0,0,1,2,2v38.91Z" transform="translate(-5.09 -3.34)"/><g class="cls-18"><rect class="cls-8" x="9.64" y="57.23" width="49.97" height="3.32"/></g><path class="cls-9" d="M63.15,101.76a2,2,0,0,1-2,2h-43a2,2,0,0,1-2-2V62.84a2,2,0,0,1,2-2h43a2,2,0,0,1,2,2v38.91Z" transform="translate(-5.09 -3.34)"/><polygon class="cls-10" points="13.77 58.11 14.05 58.67 14.67 58.77 14.22 59.21 14.33 59.83 13.77 59.53 13.21 59.83 13.32 59.21 12.87 58.77 13.49 58.67 13.77 58.11"/><polygon class="cls-10" points="16.27 58.11 16.55 58.67 17.18 58.77 16.73 59.21 16.83 59.83 16.27 59.53 15.71 59.83 15.82 59.21 15.37 58.77 15.99 58.67 16.27 58.11"/><polygon class="cls-10" points="18.78 58.11 19.06 58.67 19.68 58.77 19.23 59.21 19.34 59.83 18.78 59.53 18.22 59.83 18.33 59.21 17.87 58.77 18.5 58.67 18.78 58.11"/><rect class="cls-19" x="11.23" y="60.54" width="46.6" height="5.76"/><path class="cls-12" d="M27.22,93.74l1.41-.23,5.21-14.23H35l5.06,14.23,1.6,0.23v0.65H36.95V93.74l1.63-.23L37.34,90H31.11l-1.22,3.52,1.68,0.23v0.65H27.22V93.74ZM37,89.1L35,83.17l-0.72-2.26L31.41,89.1H37Z" transform="translate(-5.09 -3.34)"/><path class="cls-12" d="M42.78,91.37a2.45,2.45,0,0,1,.41-1.18,3.54,3.54,0,0,1,.89-0.9,5.33,5.33,0,0,1,1.22-.64,9.92,9.92,0,0,1,1.4-.41A12.63,12.63,0,0,1,48.12,88Q48.84,88,49.45,88V87.1a3.91,3.91,0,0,0-.2-1.35,2,2,0,0,0-.57-0.84,2.13,2.13,0,0,0-.9-0.44,5.16,5.16,0,0,0-1.2-.13,4.77,4.77,0,0,0-.8.07,6.85,6.85,0,0,0-.85.2q-0.42.13-.81,0.28a4.54,4.54,0,0,0-.66.32l-0.28-.69A3.69,3.69,0,0,1,44.07,84a7.89,7.89,0,0,1,1.07-.37,9.15,9.15,0,0,1,1.06-.22,6.4,6.4,0,0,1,.87-0.07,6.61,6.61,0,0,1,1.45.16,3,3,0,0,1,1.21.55,2.68,2.68,0,0,1,.82,1.08,4.39,4.39,0,0,1,.3,1.75l0,6.8h1.28v0.53a3.15,3.15,0,0,1-.73.23,4.66,4.66,0,0,1-.95.09l-0.33,0a0.68,0.68,0,0,1-.29-0.12,0.62,0.62,0,0,1-.21-0.28,1.39,1.39,0,0,1-.08-0.52V93.23a4,4,0,0,1-.61.56,3.5,3.5,0,0,1-.76.43,4.74,4.74,0,0,1-1,.28,6.2,6.2,0,0,1-1.17.1,3.75,3.75,0,0,1-1.25-.21,3.24,3.24,0,0,1-1.07-.62,2.79,2.79,0,0,1-.73-1A3,3,0,0,1,42.78,91.37Zm1.42,0a2.51,2.51,0,0,0,.18,1,1.8,1.8,0,0,0,.52.71,2.2,2.2,0,0,0,.81.41,3.88,3.88,0,0,0,1,.13,3.71,3.71,0,0,0,1-.12,4.35,4.35,0,0,0,.77-0.28,4.06,4.06,0,0,0,.58-0.34l0.38-.29V90.85q0-.52,0-1.06t0-1.06q-0.52,0-1.11,0a9.77,9.77,0,0,0-1.18.17,7.6,7.6,0,0,0-1.12.32,3.92,3.92,0,0,0-.94.49,2.45,2.45,0,0,0-.65.7A1.73,1.73,0,0,0,44.2,91.39Z" transform="translate(-5.09 -3.34)"/></g></svg>