<svg id="Layer_1" data-name="Layer 1" xmlns="http://www.w3.org/2000/svg" xmlns:xlink="http://www.w3.org/1999/xlink" viewBox="0 0 120 120"><defs><style>.cls-1{fill:none;}.cls-2{fill:#122e51;}.cls-3{fill:#f8c541;}.cls-4{fill:#f9d87f;}.cls-5{fill:#fcb71b;}.cls-6{fill:#fff;stroke:#d5d7d7;stroke-miterlimit:10;stroke-width:0.5px;}.cls-7{font-size:33.02px;fill:#212120;font-family:Source Sans Pro;font-weight:700;}.cls-8{clip-path:url(#clip-path);}.cls-9{fill:#d5d7d7;}.cls-10{fill:#aeafb4;}</style><clipPath id="clip-path" transform="translate(-5 -3.69)"><rect class="cls-1" x="39.19" y="31.04" width="53.97" height="64.47" rx="2.32" ry="2.32"/></clipPath></defs><title>Accessibility</title><circle class="cls-2" cx="60" cy="60" r="60"/><rect class="cls-3" x="27.75" y="30.49" width="33.26" height="40.07"/><rect class="cls-4" x="61.01" y="34.74" width="33.32" height="35.82"/><polygon class="cls-5" points="72.55 18.69 60.54 31.04 94.33 51.34 105.03 37.1 72.55 18.69"/><polygon class="cls-5" points="46.48 18.14 60.65 30.49 27.75 51.34 14.97 37.89 46.48 18.14"/><rect class="cls-6" x="34.19" y="27.35" width="53.97" height="64.47" rx="2.32" ry="2.32"/><text class="cls-7" transform="translate(35.54 61.27)">50<tspan x="33.54" y="0">8</tspan></text><polygon class="cls-4" points="27.75 51.34 27.75 87.15 61.07 107.4 61.07 69.78 27.75 51.34"/><polygon class="cls-5" points="27.75 51.34 15.11 64.19 48.25 83.22 60.68 69.78 27.75 51.34"/><polygon class="cls-3" points="94.33 51.34 94.33 87.15 61.02 107.4 61.02 69.78 94.33 51.34"/><polygon class="cls-5" points="94.33 51.34 104.94 62.74 73.06 83.22 60.63 69.78 94.33 51.34"/><g class="cls-8"><rect class="cls-9" x="32.6" y="27.07" width="57.35" height="3.98"/></g><polygon class="cls-10" points="37.34 28.21 37.66 28.86 38.38 28.96 37.86 29.47 37.98 30.19 37.34 29.85 36.7 30.19 36.82 29.47 36.3 28.96 37.02 28.86 37.34 28.21"/><polygon class="cls-10" points="40.22 28.21 40.54 28.86 41.25 28.96 40.73 29.47 40.86 30.19 40.22 29.85 39.57 30.19 39.7 29.47 39.18 28.96 39.89 28.86 40.22 28.21"/><polygon class="cls-10" points="43.09 28.21 43.41 28.86 44.13 28.96 43.61 29.47 43.73 30.19 43.09 29.85 42.45 30.19 42.57 29.47 42.05 28.96 42.77 28.86 43.09 28.21"/></svg>