<?xml version="1.0" encoding="utf-8"?>
<!-- Generator: Adobe Illustrator 15.1.0, SVG Export Plug-In . SVG Version: 6.00 Build 0)  -->
<!DOCTYPE svg PUBLIC "-//W3C//DTD SVG 1.1//EN" "http://www.w3.org/Graphics/SVG/1.1/DTD/svg11.dtd">
<svg version="1.1" xmlns="http://www.w3.org/2000/svg" xmlns:xlink="http://www.w3.org/1999/xlink" x="0px" y="0px" width="54px"
	 height="60px" viewBox="0 0 54 60" enable-background="new 0 0 54 60" xml:space="preserve">
<g id="Layer_1" display="none">
	<path display="inline" fill="#212121" d="M41,3.389v8.57h-5.088c-1.854,0-3.109,0.393-3.759,1.165
		c-0.65,0.78-0.973,1.949-0.973,3.503v6.134h9.499l-1.266,9.61h-8.233V57h-9.918V32.371H13v-9.61h8.263v-7.067
		c0-4.028,1.122-7.147,3.373-9.367C26.884,4.11,29.873,3,33.611,3C36.787,3,39.251,3.13,41,3.389"/>
</g>
<g id="Layer_4">
	<path fill="#212121" d="M53,14.748c-1.473,2.043-3.253,3.781-5.346,5.22c0.021,0.291,0.036,0.729,0.036,1.314
		c0,2.708-0.423,5.409-1.259,8.11c-0.836,2.695-2.104,5.283-3.811,7.766c-1.705,2.477-3.729,4.668-6.086,6.576
		c-2.353,1.906-5.189,3.43-8.515,4.559C24.7,49.434,21.148,50,17.367,50C11.408,50,5.952,48.488,1,45.471
		c0.768,0.08,1.631,0.121,2.575,0.121c4.948,0,9.357-1.436,13.232-4.312c-2.311-0.043-4.381-0.711-6.205-2.014
		c-1.826-1.299-3.082-2.965-3.762-4.986c0.729,0.105,1.396,0.154,2.011,0.154c0.948,0,1.885-0.113,2.811-0.34
		c-2.467-0.479-4.504-1.639-6.124-3.486c-1.616-1.843-2.423-3.984-2.423-6.421v-0.124c1.493,0.789,3.099,1.22,4.815,1.284
		c-1.454-0.918-2.61-2.119-3.466-3.6c-0.856-1.477-1.283-3.078-1.283-4.812c0-1.832,0.48-3.527,1.448-5.088
		c2.66,3.105,5.902,5.587,9.715,7.449c3.816,1.862,7.903,2.9,12.261,3.108c-0.179-0.793-0.266-1.561-0.266-2.308
		c0-2.796,1.04-5.175,3.115-7.143C31.535,10.986,34.05,10,36.997,10c3.08,0,5.678,1.065,7.787,3.188
		c2.4-0.438,4.65-1.25,6.764-2.436c-0.814,2.391-2.373,4.245-4.684,5.56C48.911,16.1,50.953,15.579,53,14.748"/>
</g>
<g id="Layer_3" display="none">
	<path display="inline" fill="#212121" d="M51,42.299c0,5.051-0.281,8.826-0.842,11.33c-0.305,1.271-0.93,2.344-1.879,3.203
		c-0.951,0.865-2.057,1.361-3.307,1.488C41,58.773,35.012,59,26.998,59c-8.008,0-14.002-0.227-17.975-0.68
		c-1.25-0.127-2.361-0.623-3.32-1.488c-0.955-0.859-1.578-1.932-1.859-3.203C3.281,51.211,3,47.436,3,42.299
		c0-5.049,0.281-8.82,0.844-11.328c0.299-1.271,0.928-2.34,1.875-3.2c0.953-0.865,2.061-1.377,3.34-1.522
		c3.949-0.43,9.932-0.649,17.939-0.649c8.014,0,14.002,0.22,17.975,0.649c1.25,0.146,2.361,0.657,3.32,1.522
		c0.963,0.86,1.58,1.929,1.865,3.2C50.719,33.393,51,37.162,51,42.299 M13.232,34.24h3.467v-3.043H6.594v3.043h3.4v18.414h3.238
		V34.24z M18.676,1h3.309l-3.926,12.914v8.771h-3.236v-8.771c-0.303-1.597-0.961-3.885-1.975-6.862
		C12.049,4.834,11.346,2.812,10.74,1h3.432l2.303,8.513L18.676,1z M22.559,52.654h2.889V36.67h-2.889v12.236
		c-0.646,0.908-1.26,1.361-1.842,1.361c-0.387,0-0.615-0.23-0.682-0.684c-0.02-0.062-0.031-0.441-0.031-1.135V36.67h-2.885v12.652
		c0,1.055,0.086,1.846,0.262,2.361c0.258,0.803,0.883,1.197,1.879,1.197c1.033,0,2.137-0.656,3.299-1.971V52.654z M30.66,11.777
		v5.665c0,1.745-0.307,3.024-0.906,3.822c-0.803,1.095-1.945,1.646-3.434,1.646c-1.447,0-2.582-0.552-3.402-1.646
		c-0.604-0.825-0.906-2.101-0.906-3.822v-5.665c0-1.725,0.303-2.984,0.906-3.786c0.82-1.104,1.955-1.651,3.402-1.651
		c1.488,0,2.631,0.548,3.434,1.651C30.354,8.793,30.66,10.053,30.66,11.777 M27.715,17.994v-6.799c0-1.487-0.467-2.23-1.395-2.23
		c-0.932,0-1.393,0.743-1.393,2.23v6.799c0,1.51,0.461,2.265,1.393,2.265C27.248,20.259,27.715,19.504,27.715,17.994 M36.455,47.867
		V41.49c0-1.576-0.098-2.641-0.293-3.205c-0.367-1.209-1.133-1.814-2.297-1.814c-1.082,0-2.084,0.586-3.012,1.748v-7.021h-2.883
		v21.457h2.883v-1.549c0.971,1.186,1.975,1.775,3.012,1.775c1.164,0,1.93-0.59,2.297-1.775
		C36.357,50.52,36.455,49.439,36.455,47.867 M33.574,41.264v6.83c0,1.447-0.422,2.174-1.264,2.174c-0.5,0-0.984-0.242-1.457-0.715
		v-9.746c0.473-0.473,0.957-0.711,1.457-0.711C33.152,39.096,33.574,39.818,33.574,41.264 M41.51,6.535v16.149h-2.947v-1.78
		c-1.145,1.338-2.254,2.007-3.336,2.007c-0.996,0-1.635-0.395-1.912-1.197c-0.174-0.516-0.262-1.326-0.262-2.425V6.535H36v11.877
		c0,0.713,0.014,1.092,0.035,1.135c0.066,0.478,0.293,0.712,0.682,0.712c0.58,0,1.197-0.461,1.846-1.393V6.535H41.51z
		 M47.402,47.545v-0.422h-2.947c0,1.1-0.021,1.76-0.066,1.975c-0.146,0.771-0.58,1.17-1.295,1.17c-0.994,0-1.494-0.746-1.494-2.24
		v-2.812h5.803v-3.338c0-1.701-0.293-2.953-0.871-3.752c-0.844-1.104-1.99-1.654-3.438-1.654c-1.469,0-2.621,0.551-3.467,1.654
		c-0.6,0.799-0.906,2.051-0.906,3.752v5.602c0,1.707,0.314,2.955,0.939,3.752c0.846,1.1,2.01,1.65,3.5,1.65
		c1.555,0,2.719-0.57,3.496-1.713c0.389-0.578,0.615-1.166,0.682-1.748C47.381,49.229,47.402,48.598,47.402,47.545 M44.52,41.299
		v1.486H41.6v-1.486c0-1.473,0.494-2.203,1.463-2.203C44.037,39.096,44.52,39.826,44.52,41.299"/>
</g>
<g id="Layer_2" display="none">
	<path display="inline" fill="#212121" d="M49.992,50.809c0.047,0.596-0.148,1.102-0.582,1.539C49.016,52.783,48.514,53,47.904,53
		h-4.67c-0.566,0-1.055-0.189-1.455-0.568c-0.402-0.383-0.613-0.846-0.639-1.395c-0.258-4.684-1.361-9.125-3.297-13.344
		c-1.941-4.213-4.457-7.873-7.562-10.977c-3.101-3.104-6.763-5.619-10.974-7.562c-4.215-1.935-8.664-3.048-13.342-3.333
		c-0.547-0.02-1.014-0.232-1.393-0.636C4.19,14.779,4,14.31,4,13.765V9.093c0-0.612,0.217-1.113,0.65-1.505
		C5.047,7.197,5.524,7,6.092,7h0.102c5.699,0.286,11.162,1.592,16.377,3.925c5.215,2.33,9.851,5.532,13.9,9.604
		c4.074,4.052,7.275,8.684,9.605,13.899C48.406,39.645,49.713,45.105,49.992,50.809 M33.271,50.746
		c0.041,0.607-0.145,1.137-0.557,1.57C32.322,52.771,31.809,53,31.178,53h-4.406c-0.545,0-1.014-0.178-1.406-0.537
		c-0.395-0.363-0.609-0.812-0.652-1.354c-0.482-4.992-2.488-9.258-6.031-12.795c-3.537-3.539-7.801-5.545-12.783-6.025
		c-0.549-0.045-1.002-0.266-1.359-0.656C4.184,31.242,4,30.776,4,30.231V25.82c0-0.636,0.23-1.146,0.688-1.536
		c0.371-0.371,0.836-0.557,1.404-0.557h0.16c3.488,0.284,6.816,1.161,10,2.63c3.176,1.473,6.002,3.447,8.461,5.932
		c2.482,2.463,4.458,5.283,5.927,8.461C32.109,43.93,32.986,47.262,33.271,50.746 M14.713,42.287
		c1.223,1.221,1.832,2.701,1.832,4.438c0,1.75-0.609,3.227-1.832,4.451C13.495,52.393,12.014,53,10.272,53s-3.225-0.607-4.439-1.824
		C4.61,49.951,4,48.475,4,46.725c0-1.736,0.609-3.217,1.832-4.438c1.215-1.221,2.697-1.832,4.439-1.832S13.495,41.066,14.713,42.287
		"/>
</g>
</svg>
