<?xml version="1.0" encoding="iso-8859-1"?>
<!-- Generator: Adobe Illustrator 16.0.0, SVG Export Plug-In . SVG Version: 6.00 Build 0)  -->
<!DOCTYPE svg PUBLIC "-//W3C//DTD SVG 1.1//EN" "http://www.w3.org/Graphics/SVG/1.1/DTD/svg11.dtd">
<svg xmlns="http://www.w3.org/2000/svg" xmlns:xlink="http://www.w3.org/1999/xlink" version="1.1" id="Capa_1" x="0px" y="0px" width="512px" height="512px" viewBox="0 0 339.177 339.177" style="enable-background:new 0 0 339.177 339.177;" xml:space="preserve">
<g>
	<path d="M247.244,169.59l83.938-83.938c5.332-5.327,7.994-11.798,7.994-19.414c0-7.614-2.669-14.084-7.994-19.414L292.355,7.993   C287.026,2.665,280.556,0,272.944,0c-7.617,0-14.085,2.665-19.417,7.993L169.59,91.931L85.651,7.993   C80.325,2.665,73.854,0,66.237,0c-7.611,0-14.083,2.665-19.414,7.993L7.994,46.824C2.667,52.15,0,58.624,0,66.238   c0,7.616,2.664,14.084,7.994,19.414l83.937,83.938L7.994,253.528C2.667,258.859,0,265.327,0,272.945   c0,7.61,2.664,14.082,7.994,19.41l38.83,38.828c5.33,5.332,11.803,7.994,19.414,7.994c7.616,0,14.084-2.669,19.414-7.994   l83.939-83.938l83.944,83.938c5.328,5.332,11.793,7.994,19.417,7.994c7.611,0,14.082-2.669,19.411-7.994l38.82-38.828   c5.332-5.324,7.994-11.8,7.994-19.41c0-7.618-2.662-14.086-7.994-19.417L247.244,169.59z" fill="#5b616b"/>
</g>
<g>
</g>
<g>
</g>
<g>
</g>
<g>
</g>
<g>
</g>
<g>
</g>
<g>
</g>
<g>
</g>
<g>
</g>
<g>
</g>
<g>
</g>
<g>
</g>
<g>
</g>
<g>
</g>
<g>
</g>
</svg>
