<?xml version="1.0" encoding="utf-8"?>
<!-- Generator: Adobe Illustrator 18.0.0, SVG Export Plug-In . SVG Version: 6.00 Build 0)  -->
<!DOCTYPE svg PUBLIC "-//W3C//DTD SVG 1.1//EN" "http://www.w3.org/Graphics/SVG/1.1/DTD/svg11.dtd">
<svg version="1.1" id="Capa_1" xmlns="http://www.w3.org/2000/svg" xmlns:xlink="http://www.w3.org/1999/xlink" x="0px" y="0px"
	 viewBox="0 0 444.8 444.8" enable-background="new 0 0 444.8 444.8" xml:space="preserve">
<g>
	<path d="M248.1,352L434,165.9c7.2-6.9,10.8-15.4,10.8-25.7c0-10.3-3.6-18.8-10.8-25.7l-21.4-21.7c-7-7-15.6-10.6-25.7-10.6
		c-9.9,0-18.6,3.5-26,10.6L222.4,231.5L83.7,92.8c-7-7-15.6-10.6-25.7-10.6c-9.9,0-18.6,3.5-26,10.6l-21.4,21.7
		c-7,7-10.6,15.6-10.6,25.7c0,10.1,3.5,18.7,10.6,25.7L196.4,352c7.4,7,16.1,10.6,26,10.6C232.5,362.6,241.1,359.1,248.1,352z"/>
</g>
</svg>
