<?xml version="1.0" encoding="utf-8"?>
<!-- Generator: Adobe Illustrator 16.0.4, SVG Export Plug-In . SVG Version: 6.00 Build 0)  -->
<!DOCTYPE svg PUBLIC "-//W3C//DTD SVG 1.1//EN" "http://www.w3.org/Graphics/SVG/1.1/DTD/svg11.dtd">
<svg version="1.1" id="Capa_1" xmlns="http://www.w3.org/2000/svg" xmlns:xlink="http://www.w3.org/1999/xlink" x="0px" y="0px"
	 width="216px" height="146px" viewBox="0 0 216 146" enable-background="new 0 0 216 146" xml:space="preserve">
<path d="M168.861,37.966l-11.08-11.08c-1.52-1.521-3.368-2.281-5.54-2.281c-2.173,0-4.021,0.76-5.541,2.281L93.254,80.414
	L69.301,56.379c-1.521-1.521-3.368-2.281-5.54-2.281c-2.173,0-4.02,0.76-5.541,2.281l-11.08,11.08
	c-1.521,1.521-2.281,3.368-2.281,5.541c0,2.172,0.76,4.02,2.281,5.54l29.493,29.493l11.081,11.08c1.52,1.521,3.367,2.281,5.54,2.281
	c2.172,0,4.019-0.761,5.54-2.281l11.081-11.08l58.986-58.986c1.52-1.521,2.281-3.368,2.281-5.541
	C171.143,41.334,170.381,39.487,168.861,37.966z"/>
</svg>
