<?xml version="1.0" encoding="iso-8859-1"?>
<!-- Generator: Adobe Illustrator 16.0.0, SVG Export Plug-In . SVG Version: 6.00 Build 0)  -->
<!DOCTYPE svg PUBLIC "-//W3C//DTD SVG 1.1//EN" "http://www.w3.org/Graphics/SVG/1.1/DTD/svg11.dtd">
<svg xmlns="http://www.w3.org/2000/svg" xmlns:xlink="http://www.w3.org/1999/xlink" version="1.1" id="Capa_1" x="0px" y="0px" width="512px" height="512px" viewBox="0 0 284.935 284.936" style="enable-background:new 0 0 284.935 284.936;" xml:space="preserve">
<g>
	<path d="M110.488,142.468L222.694,30.264c1.902-1.903,2.854-4.093,2.854-6.567c0-2.474-0.951-4.664-2.854-6.563L208.417,2.857   C206.513,0.955,204.324,0,201.856,0c-2.475,0-4.664,0.955-6.567,2.857L62.24,135.9c-1.903,1.903-2.852,4.093-2.852,6.567   c0,2.475,0.949,4.664,2.852,6.567l133.042,133.043c1.906,1.906,4.097,2.857,6.571,2.857c2.471,0,4.66-0.951,6.563-2.857   l14.277-14.267c1.902-1.903,2.851-4.094,2.851-6.57c0-2.472-0.948-4.661-2.851-6.564L110.488,142.468z" fill="#FFFFFF"/>
</g>
<g>
</g>
<g>
</g>
<g>
</g>
<g>
</g>
<g>
</g>
<g>
</g>
<g>
</g>
<g>
</g>
<g>
</g>
<g>
</g>
<g>
</g>
<g>
</g>
<g>
</g>
<g>
</g>
<g>
</g>
</svg>
