<?xml version="1.0" encoding="UTF-8"?>
<svg width="300px" height="512px" viewBox="0 0 300 512" version="1.1" xmlns="http://www.w3.org/2000/svg" xmlns:xlink="http://www.w3.org/1999/xlink">
    <!-- Generator: Sketch 61.2 (89653) - https://sketch.com -->
    <title>angle-arrow-down</title>
    <desc>Created with Sketch.</desc>
    <g id="Page-1" stroke="none" stroke-width="1" fill="none" fill-rule="evenodd">
        <g id="angle-arrow-down" transform="translate(150.000000, 256.000000) rotate(-90.000000) translate(-150.000000, -256.000000) translate(-106.000000, 106.000000)" fill="#5B616B" fill-rule="nonzero">
            <path d="M506.884115,31.4643999 L481.234609,5.82208199 C477.816832,2.39711647 473.879738,0.690024532 469.428721,0.690024532 C464.990282,0.690024532 461.054986,2.39711647 457.635411,5.82208199 L256.000898,207.438625 L54.3807615,5.82208199 C50.9611868,2.39891341 47.0258907,0.690024532 42.5802639,0.690024532 C38.1328401,0.690024532 34.1975439,2.39891341 30.7797662,5.82387893 L5.13205746,31.4751815 C1.70709194,34.8911624 0,38.8264585 0,43.2738823 C0,47.7177121 1.71248276,51.6530083 5.13205746,55.0707861 L244.203995,294.146317 C247.618179,297.565892 251.557069,299.274781 256.002695,299.274781 C260.448322,299.274781 264.376431,297.567689 267.794208,294.146317 L506.884115,55.0707861 C510.301893,51.6512114 512,47.7159152 512,43.2738823 C512,38.8264585 510.300096,34.8911624 506.882318,31.4679938 L506.884115,31.4643999 Z" id="Path"></path>
        </g>
    </g>
</svg>