<?xml version="1.0" encoding="UTF-8"?>
<svg xmlns="http://www.w3.org/2000/svg" width="512" height="300" viewBox="0 0 512 300">
  <path fill="#FFF" d="M506.884115,31.4837942 L481.234609,5.8414763 C477.816832,2.41651078 473.879738,0.709418838 469.428721,0.709418838 C464.990282,0.709418838 461.054986,2.41651078 457.635411,5.8414763 L256.000898,207.458019 L54.3807615,5.8414763 C50.9611868,2.41830772 47.0258907,0.711215777 42.5802639,0.711215777 C38.1328401,0.711215777 34.1975439,2.41830772 30.7797662,5.84327324 L5.13205746,31.4945758 C1.70709194,34.9105567 0,38.8458528 0,43.2932766 C0,47.7371064 1.71248276,51.6724026 5.13205746,55.0901804 L244.203995,294.165711 C247.618179,297.585286 251.557069,299.294175 256.002695,299.294175 C260.448322,299.294175 264.376431,297.587083 267.794208,294.165711 L506.884115,55.0901804 C510.301893,51.6706057 512,47.7353095 512,43.2932766 C512,38.8458528 510.300096,34.9105567 506.882318,31.4873881 L506.884115,31.4837942 Z"/>
</svg>
