<svg width="10" height="14" viewBox="0 0 10 14" xmlns="http://www.w3.org/2000/svg">
  <g fill="#212121" fill-rule="evenodd">
    <path d="M.655 5.72h8.69c.168 0 .314-.064.437-.19.122-.128.184-.278.184-.45 0-.174-.062-.325-.184-.45L5.436.145C5.314.02 5.168-.044 5-.044c-.168 0-.314.064-.437.19L.218 4.63c-.123.125-.184.276-.184.45 0 .172.06.322.184.45.123.126.27.19.437.19zM.655 8.28c-.168 0-.314.064-.437.19-.123.128-.184.278-.184.45 0 .174.06.325.184.45l4.345 4.484c.123.126.27.19.437.19.168 0 .314-.064.436-.19L9.782 9.37c.122-.125.184-.276.184-.45 0-.172-.062-.322-.184-.45-.123-.126-.27-.19-.437-.19H.655z"/>
  </g>
</svg>
