<svg aria-labelledby="close2" xmlns="http://www.w3.org/2000/svg" style="enable-background:new 0 0 15 15" xml:space="preserve" width="64" height="64" fill="currentColor"><title id="close2">Close</title><path fill-rule="evenodd" d="m57.042 1.15 5.809 5.808a4 4 0 0 1 0 5.657L43.465 32l19.386 19.385a4 4 0 0 1 0 5.657l-5.809 5.809a4 4 0 0 1-5.657 0L32 43.465 12.615 62.851a4 4 0 0 1-5.657 0l-5.809-5.809a4 4 0 0 1 0-5.657L20.535 32 1.149 12.615a4 4 0 0 1 0-5.657l5.809-5.809a4 4 0 0 1 5.657 0L32 20.535 51.385 1.149a4 4 0 0 1 5.657 0z"/></svg>
