<?xml version="1.0" encoding="UTF-8"?>
<svg width="136px" height="136px" viewBox="0 0 136 136" version="1.1" xmlns="http://www.w3.org/2000/svg" xmlns:xlink="http://www.w3.org/1999/xlink">
    <!-- Generator: Sketch 43.2 (39069) - http://www.bohemiancoding.com/sketch -->
    <title>Slice 1</title>
    <desc>Created with Sketch.</desc>
    <defs></defs>
    <g id="Page-1" stroke="none" stroke-width="1" fill="none" fill-rule="evenodd">
        <g id="search-alt" fill-rule="nonzero" fill="#0071BC">
            <path d="M132.77,118.025 L104.825,90.08 C111.56,80.358 114.929,69.52 114.929,57.572 C114.929,49.805 113.419,42.377 110.402,35.289 C107.388,28.199 103.314,22.089 98.182,16.953 C93.05,11.817 86.939,7.746 79.852,4.733 C72.762,1.717 65.332,0.21 57.566,0.21 C49.798,0.21 42.37,1.718 35.282,4.733 C28.192,7.747 22.082,11.821 16.95,16.953 C11.818,22.087 7.744,28.198 4.73,35.286 C1.715,42.374 0.208,49.801 0.208,57.568 C0.208,65.334 1.715,72.76 4.73,79.85 C7.744,86.938 11.818,93.047 16.95,98.18 C22.084,103.314 28.195,107.387 35.283,110.402 C42.373,113.417 49.799,114.924 57.566,114.924 C69.516,114.924 80.352,111.554 90.076,104.819 L118.019,132.682 C119.974,134.746 122.416,135.778 125.351,135.778 C128.175,135.778 130.621,134.748 132.683,132.682 C134.747,130.619 135.779,128.174 135.779,125.35 C135.779,122.473 134.777,120.028 132.766,118.02 L132.77,118.025 Z M83.357,83.357 C76.214,90.5 67.62,94.07 57.57,94.07 C47.522,94.07 38.927,90.5 31.784,83.357 C24.64,76.214 21.07,67.62 21.07,57.57 C21.07,47.523 24.642,38.927 31.784,31.785 C38.926,24.642 47.522,21.07 57.57,21.07 C67.618,21.07 76.213,24.643 83.357,31.785 C90.5,38.927 94.072,47.523 94.072,57.571 C94.072,67.621 90.499,76.218 83.357,83.361 L83.357,83.357 Z" id="Shape"></path>
        </g>
    </g>
</svg>