<svg id="Layer_1" data-name="Layer 1" xmlns="http://www.w3.org/2000/svg" viewBox="0 0 120 120"><defs><style>.cls-1{fill:#fff;}.cls-2{fill:#122e51;}.cls-3{fill:#f9d87f;}.cls-4{fill:none;}.cls-5{fill:#00bfe7;}</style></defs><title>Easiest</title><ellipse class="cls-1" cx="59.98" cy="60" rx="59.98" ry="60"/><ellipse class="cls-2" cx="60.02" cy="60" rx="59.98" ry="60"/><path class="cls-3" d="M36.28,91.14s-2.7-12.38-1-16.19c5.41-7.15,18.88-6.72,18.88-6.72l22.39,8.55L57.36,92.51Z" transform="translate(-5 -5)"/><ellipse class="cls-4" cx="60.02" cy="60" rx="59.98" ry="60"/><polygon class="cls-5" points="54.44 14.19 71.68 39.05 101.93 38.95 83.61 63.03 93.06 91.78 64.5 81.79 40.09 99.66 40.76 69.41 16.23 51.71 45.2 42.99 54.44 14.19"/><path class="cls-3" d="M38.16,100.59l-1.87-9.45c3.22-1.94,6.27-3,8.21-4.37,6.25-4.33,7.43-5.06,8.25-5.59,1.59-1,5.84-.2,2.9,4.13C54.37,87.19,50,89.91,48.7,94,46.71,100.47,38.16,100.59,38.16,100.59Z" transform="translate(-5 -5)"/><path class="cls-3" d="M30.67,114.18A59.75,59.75,0,0,0,46.14,122L54.78,96.1,43.13,91.56Z" transform="translate(-5 -5)"/></svg>