<svg width="24" height="24" viewBox="0 0 24 24" xmlns="http://www.w3.org/2000/svg"><path d="M20.519 2A1.47 1.47 0 0 1 22 3.442v17.115A1.47 1.47 0 0 1 20.519 22H3.476A1.467 1.467 0 0 1 2 20.557V3.443c.01-.8.676-1.45 1.476-1.441h17.043Zm-5.034 7.26a3.121 3.121 0 0 0-2.807 1.542h-.04V9.497H9.794v9.544h2.963V14.32c0-1.245.236-2.45 1.78-2.45 1.352 0 1.518 1.125 1.538 2.152l.003.254v4.765h2.963l.002-5.235c0-2.57-.554-4.546-3.558-4.546Zm-7.554.237H4.965v9.544h2.966V9.497ZM6.45 4.753c-.943 0-1.72.777-1.72 1.72 0 .944.777 1.72 1.72 1.72l.148-.007A1.73 1.73 0 0 0 8.17 6.473c0-.943-.776-1.72-1.72-1.72Z"/></svg>