<svg width="24" height="24" viewBox="0 0 24 24" xmlns="http://www.w3.org/2000/svg"><path d="M12 2c5.523 0 10 4.477 10 10s-4.477 10-10 10S2 17.523 2 12 6.477 2 12 2Zm2.766 7.47a2.398 2.398 0 0 0-2.157 1.186h-.03V9.652h-2.187V17h2.277v-3.635c0-.959.182-1.887 1.368-1.887 1.17 0 1.184 1.097 1.184 1.949V17H17.5l.001-4.03c0-1.98-.426-3.5-2.734-3.5Zm-5.805.182H6.68V17h2.28V9.652ZM7.82 6A1.33 1.33 0 0 0 6.5 7.324a1.33 1.33 0 0 0 1.322 1.324l.134-.007a1.33 1.33 0 0 0 1.187-1.317l-.007-.135A1.33 1.33 0 0 0 7.822 6Z" fill-rule="evenodd"/></svg>