<?xml version="1.0" encoding="utf-8"?>
<!-- Generator: Adobe Illustrator 18.0.0, SVG Export Plug-In . SVG Version: 6.00 Build 0)  -->
<!DOCTYPE svg PUBLIC "-//W3C//DTD SVG 1.1//EN" "http://www.w3.org/Graphics/SVG/1.1/DTD/svg11.dtd">
<svg version="1.1" id="Capa_1" xmlns="http://www.w3.org/2000/svg" xmlns:xlink="http://www.w3.org/1999/xlink" x="0px" y="0px"
	 viewBox="0 0 216 146" enable-background="new 0 0 216 146" xml:space="preserve">
<g>
	<path fill="#FFFFFF" d="M66.3,99.1c-4.3,0-8,1.5-11.1,4.6c-3,3-4.6,6.7-4.6,11.1c0,4.3,1.5,8,4.6,11.1c3,3,6.7,4.6,11.1,4.6
		s8-1.5,11.1-4.6c3-3,4.6-6.7,4.6-11.1c0-4.3-1.5-8-4.6-11.1C74.3,100.6,70.6,99.1,66.3,99.1z"/>
	<path fill="#FFFFFF" d="M102.3,78.7c-6.1-6.2-13.2-11.1-21.1-14.8c-7.9-3.7-16.2-5.9-24.9-6.6h-0.4c-1.4,0-2.6,0.5-3.5,1.4
		c-1.1,1-1.7,2.3-1.7,3.8v11c0,1.4,0.4,2.5,1.3,3.5c0.9,1,2,1.5,3.4,1.6c12.4,1.2,23.1,6.2,31.9,15c8.8,8.8,13.8,19.5,15,31.9
		c0.1,1.4,0.7,2.5,1.6,3.4c1,0.9,2.1,1.3,3.5,1.3h11c1.6,0,2.9-0.6,3.8-1.7c1-1.1,1.5-2.4,1.4-3.9c-0.7-8.7-2.9-17-6.6-24.9
		C113.4,91.9,108.5,84.8,102.3,78.7z"/>
	<path fill="#FFFFFF" d="M155.6,84c-5.8-13-13.8-24.6-24-34.7C121.5,39.2,110,31.2,97,25.4c-13-5.8-26.6-9.1-40.9-9.8h-0.2
		c-1.4,0-2.6,0.5-3.6,1.5c-1.1,1-1.6,2.2-1.6,3.7v11.6c0,1.4,0.5,2.5,1.4,3.5s2.1,1.5,3.5,1.6c11.7,0.7,22.8,3.5,33.3,8.3
		s19.6,11.1,27.4,18.9c7.7,7.7,14,16.9,18.9,27.4c4.8,10.5,7.6,21.6,8.2,33.3c0.1,1.4,0.6,2.5,1.6,3.5c1,0.9,2.2,1.4,3.6,1.4h11.6
		c1.5,0,2.8-0.5,3.7-1.6c1.1-1.1,1.6-2.4,1.5-3.8C164.6,110.7,161.4,97,155.6,84z"/>
</g>
</svg>
