<?xml version="1.0" encoding="utf-8"?>
<!-- Generator: Adobe Illustrator 16.0.4, SVG Export Plug-In . SVG Version: 6.00 Build 0)  -->
<!DOCTYPE svg PUBLIC "-//W3C//DTD SVG 1.1//EN" "http://www.w3.org/Graphics/SVG/1.1/DTD/svg11.dtd">
<svg version="1.1" id="Capa_1" xmlns="http://www.w3.org/2000/svg" xmlns:xlink="http://www.w3.org/1999/xlink" x="0px" y="0px"
	 width="216px" height="146px" viewBox="0 0 216 146" enable-background="new 0 0 216 146" xml:space="preserve">
<g>
	<path d="M66.279,99.072c-4.346,0-8.039,1.521-11.081,4.562c-3.041,3.042-4.562,6.735-4.562,11.08c0,4.347,1.52,8.039,4.562,11.081
		c3.042,3.041,6.736,4.562,11.081,4.562c4.345,0,8.038-1.521,11.08-4.562c3.041-3.042,4.562-6.734,4.562-11.081
		c0-4.345-1.521-8.038-4.562-11.08C74.318,100.593,70.625,99.072,66.279,99.072z"/>
	<path d="M102.29,78.703c-6.138-6.192-13.172-11.121-21.102-14.787c-7.93-3.667-16.241-5.853-24.931-6.559H55.85
		c-1.412,0-2.58,0.462-3.503,1.385c-1.141,0.977-1.711,2.254-1.711,3.829V73.57c0,1.357,0.448,2.525,1.344,3.503
		c0.896,0.979,2.023,1.522,3.381,1.63c12.438,1.195,23.07,6.206,31.896,15.032c8.826,8.825,13.837,19.458,15.032,31.896
		c0.109,1.358,0.652,2.485,1.63,3.381c0.978,0.897,2.145,1.346,3.503,1.346h10.999c1.575,0,2.851-0.57,3.829-1.711
		c1.032-1.088,1.494-2.391,1.387-3.912c-0.707-8.689-2.894-17-6.559-24.93C113.411,91.875,108.482,84.841,102.29,78.703z"/>
	<path d="M155.573,84.039c-5.812-13.009-13.796-24.564-23.953-34.667c-10.103-10.157-21.658-18.141-34.667-23.953
		c-13.008-5.811-26.628-9.071-40.859-9.777H55.85c-1.412,0-2.607,0.489-3.585,1.467c-1.086,0.977-1.629,2.227-1.629,3.748v11.65
		c0,1.358,0.476,2.539,1.426,3.544s2.104,1.534,3.462,1.589c11.678,0.707,22.772,3.478,33.282,8.312
		c10.51,4.834,19.635,11.121,27.375,18.86c7.739,7.74,14.026,16.865,18.86,27.375c4.834,10.512,7.578,21.604,8.229,33.282
		c0.055,1.358,0.584,2.513,1.588,3.463c1.006,0.95,2.215,1.427,3.627,1.427h11.65c1.521,0,2.768-0.543,3.747-1.631
		c1.087-1.086,1.574-2.361,1.468-3.828C164.645,110.668,161.385,97.048,155.573,84.039z"/>
</g>
</svg>
