<?xml version="1.0" encoding="utf-8"?>
<!-- Generator: Adobe Illustrator 18.0.0, SVG Export Plug-In . SVG Version: 6.00 Build 0)  -->
<!DOCTYPE svg PUBLIC "-//W3C//DTD SVG 1.1//EN" "http://www.w3.org/Graphics/SVG/1.1/DTD/svg11.dtd">
<svg version="1.1" id="Capa_1" xmlns="http://www.w3.org/2000/svg" xmlns:xlink="http://www.w3.org/1999/xlink" x="0px" y="0px"
	 viewBox="0 0 216 146" enable-background="new 0 0 216 146" xml:space="preserve">
<path fill="#212121" d="M172.2,33.2c-5.1,2.2-10.1,3.5-15.2,4.1c5.7-3.4,9.6-8.3,11.6-14.5c-5.2,3.1-10.8,5.2-16.7,6.4
	c-5.2-5.5-11.6-8.3-19.2-8.3c-7.3,0-13.5,2.6-18.6,7.7c-5.1,5.1-7.7,11.3-7.7,18.6c0,2,0.2,4,0.7,6c-10.8-0.5-20.8-3.2-30.3-8.1
	c-9.4-4.9-17.4-11.3-24-19.4c-2.4,4.1-3.6,8.5-3.6,13.3c0,4.5,1.1,8.7,3.2,12.5c2.1,3.9,5,7,8.6,9.4c-4.2-0.2-8.2-1.3-11.9-3.3v0.3
	c0,6.4,2,11.9,6,16.7c4,4.8,9,7.8,15.1,9.1c-2.3,0.6-4.6,0.9-6.9,0.9c-1.5,0-3.2-0.1-5-0.4c1.7,5.3,4.8,9.6,9.3,13
	c4.5,3.4,9.6,5.1,15.3,5.3c-9.6,7.5-20.4,11.2-32.7,11.2c-2.3,0-4.5-0.1-6.4-0.3c12.2,7.9,25.7,11.8,40.4,11.8
	c9.3,0,18.1-1.5,26.3-4.4c8.2-3,15.2-6.9,21-11.9c5.8-5,10.8-10.7,15-17.2c4.2-6.5,7.3-13.2,9.4-20.2c2.1-7,3.1-14.1,3.1-21.1
	c0-1.5,0-2.7-0.1-3.4C164.2,43.1,168.6,38.6,172.2,33.2z"/>
</svg>
