<?xml version="1.0" encoding="utf-8"?>
<!-- Generator: Adobe Illustrator 18.0.0, SVG Export Plug-In . SVG Version: 6.00 Build 0)  -->
<!DOCTYPE svg PUBLIC "-//W3C//DTD SVG 1.1//EN" "http://www.w3.org/Graphics/SVG/1.1/DTD/svg11.dtd">
<svg version="1.1" id="Capa_1" xmlns="http://www.w3.org/2000/svg" xmlns:xlink="http://www.w3.org/1999/xlink" x="0px" y="0px"
	 viewBox="0 0 216 146" enable-background="new 0 0 216 146" xml:space="preserve">
<g>
	<path fill="#212121" d="M166.3,75.4c-0.7-3.2-2.3-5.9-4.7-8.1c-2.4-2.2-5.2-3.4-8.4-3.8c-10-1.1-25.1-1.6-45.2-1.6
		c-20.2,0-35.2,0.5-45.1,1.6c-3.2,0.4-6,1.7-8.4,3.8c-2.4,2.2-4,4.9-4.7,8.1c-1.4,6.3-2.1,15.8-2.1,28.5c0,12.9,0.7,22.4,2.1,28.5
		c0.7,3.2,2.3,5.9,4.7,8.1c2.4,2.2,5.2,3.4,8.4,3.7c10,1.1,25.1,1.7,45.2,1.7c20.1,0,35.2-0.6,45.2-1.7c3.2-0.3,5.9-1.6,8.3-3.7
		c2.4-2.2,4-4.9,4.7-8.1c1.4-6.3,2.1-15.8,2.1-28.5C168.4,91,167.7,81.5,166.3,75.4z M82.1,83.7h-8.7V130h-8.1V83.7h-8.6V76h25.4
		C82.1,76,82.1,83.7,82.1,83.7z M104.1,130h-7.3v-4.4c-2.9,3.3-5.7,5-8.3,5c-2.5,0-4.1-1-4.7-3c-0.4-1.3-0.7-3.3-0.7-5.9V89.8h7.3
		v29.7c0,1.7,0,2.7,0.1,2.9c0.2,1.1,0.7,1.7,1.7,1.7c1.5,0,3-1.1,4.6-3.4V89.8h7.3V130z M131.8,118c0,4-0.2,6.7-0.7,8.1
		c-0.9,3-2.9,4.5-5.8,4.5c-2.6,0-5.1-1.5-7.6-4.5v3.9h-7.2V76h7.2v17.7c2.3-2.9,4.9-4.4,7.6-4.4c2.9,0,4.9,1.5,5.8,4.6
		c0.5,1.4,0.7,4.1,0.7,8.1V118z M159.3,111.3h-14.6v7.1c0,3.7,1.2,5.6,3.7,5.6c1.8,0,2.9-1,3.3-2.9c0.1-0.5,0.2-2.2,0.2-5h7.4v1.1
		c0,2.7-0.1,4.2-0.2,4.7c-0.2,1.5-0.7,2.9-1.7,4.4c-2,2.9-4.9,4.3-8.8,4.3c-3.7,0-6.7-1.4-8.8-4.2c-1.6-2-2.4-5.2-2.4-9.5v-14.1
		c0-4.3,0.8-7.4,2.3-9.5c2.1-2.8,5-4.2,8.7-4.2c3.6,0,6.5,1.4,8.6,4.2c1.5,2,2.2,5.2,2.2,9.5L159.3,111.3L159.3,111.3z"/>
	<path fill="#212121" d="M121.4,95.9c-1.2,0-2.5,0.6-3.7,1.8v24.5c1.2,1.2,2.4,1.8,3.7,1.8c2.1,0,3.2-1.8,3.2-5.5v-17.2
		C124.5,97.7,123.5,95.9,121.4,95.9z"/>
	<path fill="#212121" d="M148.4,95.9c-2.4,0-3.7,1.8-3.7,5.5v3.7h7.3v-3.7C152.1,97.7,150.9,95.9,148.4,95.9z"/>
	<path fill="#212121" d="M77.4,32.5v22.1h8.1V32.5L95.4,0h-8.3l-5.5,21.4L75.7,0h-8.6c1.5,4.6,3.3,9.6,5.3,15.2
		C75,22.7,76.6,28.5,77.4,32.5z"/>
	<path fill="#212121" d="M106.3,55.2c3.7,0,6.6-1.4,8.6-4.2c1.5-2,2.3-5.2,2.3-9.6V27.1c0-4.3-0.8-7.5-2.3-9.5
		c-2-2.8-4.9-4.2-8.6-4.2c-3.6,0-6.5,1.4-8.6,4.2c-1.5,2-2.3,5.2-2.3,9.5v14.3c0,4.3,0.8,7.5,2.3,9.6
		C99.8,53.8,102.6,55.2,106.3,55.2z M102.8,25.7c0-3.7,1.2-5.6,3.5-5.6s3.5,1.9,3.5,5.6v17.1c0,3.8-1.2,5.7-3.5,5.7
		s-3.5-1.9-3.5-5.7V25.7z"/>
	<path fill="#212121" d="M128.7,55.2c2.7,0,5.5-1.7,8.4-5.1v4.5h7.4V13.9h-7.4v31c-1.6,2.3-3.2,3.5-4.6,3.5c-1,0-1.5-0.6-1.7-1.8
		c-0.1-0.1-0.1-1.1-0.1-2.9V13.9h-7.4V46c0,2.8,0.2,4.8,0.7,6.1C124.6,54.2,126.2,55.2,128.7,55.2z"/>
</g>
</svg>
