<?xml version="1.0" encoding="utf-8"?>
<!-- Generator: Adobe Illustrator 16.0.4, SVG Export Plug-In . SVG Version: 6.00 Build 0)  -->
<!DOCTYPE svg PUBLIC "-//W3C//DTD SVG 1.1//EN" "http://www.w3.org/Graphics/SVG/1.1/DTD/svg11.dtd">
<svg version="1.1" id="Capa_1" xmlns="http://www.w3.org/2000/svg" xmlns:xlink="http://www.w3.org/1999/xlink" x="0px" y="0px"
	 width="216px" height="146px" viewBox="0 0 216 146" enable-background="new 0 0 216 146" xml:space="preserve">
<g>
	<path d="M166.254,75.443c-0.705-3.205-2.268-5.893-4.684-8.065c-2.418-2.172-5.202-3.449-8.353-3.829
		c-9.993-1.086-25.065-1.629-45.218-1.629c-20.152,0-35.197,0.543-45.137,1.629c-3.204,0.38-6.001,1.657-8.392,3.829
		c-2.39,2.173-3.965,4.861-4.726,8.065c-1.412,6.302-2.118,15.807-2.118,28.517c0,12.927,0.706,22.433,2.118,28.517
		c0.707,3.203,2.269,5.893,4.686,8.064c2.417,2.173,5.201,3.422,8.351,3.748C72.776,145.43,87.849,146,108,146
		c20.15,0,35.225-0.57,45.217-1.711c3.151-0.326,5.92-1.575,8.311-3.748c2.391-2.171,3.966-4.861,4.726-8.064
		c1.412-6.302,2.119-15.807,2.119-28.517C168.372,91.033,167.665,81.527,166.254,75.443z M82.092,83.674h-8.718v46.357h-8.147
		V83.674h-8.555v-7.659h25.42V83.674z M104.089,130.031h-7.251v-4.4c-2.933,3.314-5.704,4.97-8.311,4.97
		c-2.498,0-4.074-1.005-4.725-3.014c-0.434-1.304-0.652-3.287-0.652-5.948V89.783h7.251v29.656c0,1.738,0.027,2.689,0.082,2.852
		c0.163,1.141,0.733,1.711,1.711,1.711c1.466,0,3.015-1.141,4.644-3.422V89.783h7.251V130.031z M131.79,117.973
		c0,3.965-0.244,6.682-0.731,8.149c-0.925,2.985-2.852,4.479-5.785,4.479c-2.607,0-5.133-1.494-7.578-4.479v3.91h-7.25V76.016h7.25
		v17.68c2.337-2.932,4.861-4.399,7.578-4.399c2.933,0,4.86,1.521,5.785,4.562c0.487,1.412,0.731,4.101,0.731,8.066V117.973z
		 M159.328,111.293h-14.583v7.088c0,3.748,1.248,5.621,3.747,5.621c1.792,0,2.879-0.977,3.259-2.934
		c0.108-0.543,0.163-2.199,0.163-4.969h7.414v1.059c0,2.662-0.055,4.236-0.163,4.727c-0.162,1.465-0.731,2.932-1.711,4.398
		c-1.955,2.879-4.89,4.318-8.8,4.318c-3.747,0-6.68-1.385-8.799-4.154c-1.574-2.01-2.362-5.16-2.362-9.451V102.9
		c0-4.291,0.76-7.441,2.28-9.451c2.119-2.77,5.025-4.154,8.719-4.154c3.64,0,6.52,1.384,8.636,4.154c1.468,2.01,2.2,5.16,2.2,9.451
		V111.293z"/>
	<path d="M121.361,95.895c-1.25,0-2.471,0.599-3.666,1.793v24.522c1.195,1.194,2.416,1.792,3.666,1.792
		c2.117,0,3.178-1.818,3.178-5.459v-17.189C124.539,97.714,123.479,95.895,121.361,95.895z"/>
	<path d="M148.411,95.895c-2.444,0-3.666,1.847-3.666,5.539v3.748h7.332v-3.748C152.077,97.74,150.854,95.895,148.411,95.895z"/>
	<path d="M77.368,32.508v22.08h8.147v-22.08L95.372,0h-8.31l-5.539,21.428L75.738,0h-8.636c1.521,4.563,3.286,9.641,5.296,15.236
		C74.951,22.731,76.607,28.489,77.368,32.508z"/>
	<path d="M106.289,55.158c3.748,0,6.626-1.385,8.636-4.155c1.521-2.01,2.281-5.215,2.281-9.614V27.131
		c0-4.345-0.761-7.523-2.281-9.533c-2.01-2.77-4.888-4.155-8.636-4.155c-3.64,0-6.492,1.385-8.555,4.155
		c-1.52,2.01-2.281,5.188-2.281,9.533v14.258c0,4.345,0.76,7.55,2.281,9.614C99.798,53.773,102.649,55.158,106.289,55.158z
		 M102.785,25.664c0-3.748,1.168-5.622,3.504-5.622s3.503,1.874,3.503,5.622v17.109c0,3.803-1.167,5.703-3.503,5.703
		s-3.504-1.901-3.504-5.703V25.664z"/>
	<path d="M128.693,55.158c2.717,0,5.515-1.684,8.393-5.052v4.481h7.414V13.932h-7.414v31.041c-1.63,2.336-3.177,3.503-4.645,3.503
		c-0.979,0-1.549-0.597-1.711-1.792c-0.055-0.109-0.082-1.06-0.082-2.852v-29.9h-7.414v32.101c0,2.77,0.218,4.806,0.652,6.11
		C124.593,54.153,126.195,55.158,128.693,55.158z"/>
</g>
</svg>
